<svg width="212" height="212" viewBox="0 0 212 212" fill="none" xmlns="http://www.w3.org/2000/svg">
<path d="M20.5654 92.4273L12.2545 84.6666C9.63687 82.2222 9.83367 78.0143 12.668 75.8249L86.6271 18.6957C88.7066 17.0893 91.6056 17.0793 93.6963 18.6711L168.032 75.2713C171.129 77.6289 171.076 82.305 167.927 84.5919L156.145 93.1491C154.057 94.6656 151.219 94.6226 149.178 93.0437L147.817 91.9906V161.178C147.817 164.386 145.216 166.986 142.008 166.986H38.2961C35.0883 166.986 32.4879 164.386 32.4879 161.178V89.5575L27.9583 92.8703C25.7072 94.5167 22.6037 94.3307 20.5654 92.4273Z" fill="white"/>
<path d="M47.0094 104.078L42.4798 107.391C40.2287 109.037 37.1252 108.851 35.0869 106.948L26.776 99.1871C24.1584 96.7427 24.3552 92.5348 27.1895 90.3454L101.149 33.2162C103.228 31.6098 106.127 31.5998 108.218 33.1916L182.554 89.7918C185.65 92.1494 185.597 96.8255 182.449 99.1125L170.666 107.67C168.579 109.186 165.741 109.143 163.699 107.564L162.338 106.511M47.0094 104.078L101.147 64.4833C103.236 62.9558 106.083 62.9941 108.13 64.5774L162.338 106.511M47.0094 104.078V175.699C47.0094 178.906 49.6098 181.507 52.8176 181.507H156.53C159.738 181.507 162.338 178.906 162.338 175.699V106.511" stroke="#030605" stroke-width="5.80822"/>
<path d="M75.5078 119.202V117.907L83.8241 125.234L94.9125 114.243L85.6722 106H88.083C93.6719 106 99.0655 108.056 103.236 111.777L104.283 112.711C105.4 113.707 106.171 115.031 106.487 116.493L108.638 126.441C108.726 126.848 108.934 127.22 109.235 127.508L130.8 148.171C133.958 151.197 134.1 156.198 131.12 159.398C128.008 162.739 122.736 162.803 119.545 159.538L97.3746 136.853C96.982 136.452 96.4439 136.225 95.8821 136.225H86.0724C84.6406 136.225 83.2753 135.621 82.3128 134.561L80.7944 132.888C77.3925 129.142 75.5078 124.262 75.5078 119.202Z" stroke="#030605" stroke-width="5.80822" stroke-linejoin="round"/>
<circle cx="124.576" cy="153.468" r="2.90411" fill="#030605"/>
</svg>
