<svg width="96" height="58" viewBox="0 0 96 58" fill="none" xmlns="http://www.w3.org/2000/svg">
<path d="M15.7296 17.7677L15.7296 34.2844C15.7296 39.5161 13.3875 41.5845 9.73742 41.5845C6.9086 41.5845 5.6919 39.7899 5.44856 39.3336L5.44856 51.8048L0.42969 51.8048L0.429688 10.7413L5.14438 10.7413L5.14438 12.7489C6.20899 11.2888 7.91237 10.4067 9.73742 10.4676C13.3875 10.4676 15.7296 12.5359 15.7296 17.7677ZM5.41814 18.8019L5.41814 33.2502C5.41814 35.9877 6.3915 37.0219 8.03404 37.0219C9.76783 37.0219 10.6499 36.0486 10.6499 33.2502L10.6499 18.8628C10.6499 16.0948 9.76783 15.0606 8.03404 15.0606C6.33066 15.0302 5.41814 16.186 5.41814 18.8019Z" fill="white"/>
<path d="M22.6917 7.85014C21.0187 7.91098 19.6195 6.60303 19.5587 4.93007C19.4978 3.25711 20.8058 1.85792 22.4787 1.79708C22.5396 1.79708 22.6004 1.79708 22.6613 1.79708C24.3342 1.73625 25.7334 3.0442 25.7942 4.71715C25.8551 6.39011 24.5471 7.78931 22.8742 7.85014C22.8133 7.85014 22.7525 7.85014 22.6917 7.85014ZM25.1555 41.3093L20.1366 41.3093L20.1366 10.7398L25.1555 10.7398L25.1555 41.3093Z" fill="white"/>
<path d="M34.9234 41.3068L29.8438 41.3068L29.8438 0L34.9234 -2.73244e-07L34.9234 41.3068Z" fill="white"/>
<path d="M39.2734 33.5829L39.2734 18.4351C39.2734 13.5683 42.0414 10.4353 46.969 10.4353C51.775 10.4353 54.6038 13.5987 54.6038 18.4351L54.6038 33.5829C54.6038 38.6018 51.775 41.7044 46.969 41.7044C42.0414 41.7044 39.2734 38.6018 39.2734 33.5829ZM44.2923 17.7659L44.2923 34.2825C44.2923 36.3509 45.5394 37.1114 46.969 37.1114C48.3378 37.1114 49.5849 36.3509 49.5849 34.2825L49.5849 17.7659C49.5849 15.7888 48.3987 14.9371 46.969 14.9371C45.4786 14.9371 44.2923 15.8192 44.2923 17.7659Z" fill="white"/>
<path d="M57.7042 11.0088C60.4418 11.0088 61.2022 10.0354 61.2022 6.14197L64.7307 6.14197L64.7307 10.7046L68.5328 10.7046L68.5328 15.2368L64.7307 15.2368L64.7307 33.5481C64.7307 36.1031 65.0044 37.3198 68.5328 36.9244L68.5328 41.4566C68.0462 41.5174 67.1032 41.5782 66.3428 41.5782C61.1718 41.5782 59.6814 38.4757 59.6814 33.7914L59.6814 15.2672L57.6738 15.2672L57.7042 11.0088Z" fill="white"/>
<path d="M74.7093 7.85014C73.0363 7.91098 71.6371 6.60303 71.5763 4.93007C71.5154 3.25711 72.8234 1.85792 74.4963 1.79708C74.5572 1.79708 74.618 1.79708 74.6788 1.79708C76.3518 1.73625 77.751 3.0442 77.8118 4.71715C77.8727 6.39011 76.5647 7.78931 74.8917 7.85014C74.8309 7.85014 74.7701 7.85014 74.7093 7.85014ZM77.1426 41.3093L72.1238 41.3093L72.1238 10.7398L77.1426 10.7398L77.1426 41.3093Z" fill="white"/>
<path d="M95.7874 17.8832L90.8294 17.8832C90.8294 15.6932 89.5214 14.7807 88.2743 14.7807C86.9664 14.7198 85.8713 15.754 85.8105 17.062C85.8105 17.0924 85.8105 17.1532 85.8105 17.1836C85.8105 18.0962 86.1451 19.1608 87.1184 20.3471L93.3844 27.8602C95.5745 30.476 96.0003 32.6053 96.0003 34.8866C96.0003 38.6887 93.3844 41.7001 88.3656 41.7001C83.4684 41.7001 80.457 38.8712 80.457 34.0653L85.4759 34.0653C85.4759 36.2553 86.7839 37.3808 88.3656 37.3808C89.7952 37.3808 90.9815 36.2553 90.9815 34.7953C90.9815 34.7649 90.9815 34.7345 90.9815 34.7041C90.9815 33.609 90.8598 32.8486 89.4606 31.1148L83.3163 23.6625C81.0654 20.925 80.8525 18.9783 80.8525 17.1228C80.8525 13.351 83.5292 10.3702 88.0614 10.3702C92.9586 10.3397 95.7874 12.8035 95.7874 17.8832Z" fill="white"/>
<path d="M38.1269 53.251L38.1269 48.2909L38.963 48.2909L38.963 53.251L38.1269 53.251ZM38.1269 47.3598L38.1269 46.3145L38.963 46.3145L38.963 47.3598L38.1269 47.3598ZM51.7381 53.251L50.902 53.251L50.902 50.4764C50.902 49.957 50.8164 49.5737 50.6454 49.3267C50.4807 49.0796 50.2336 48.9561 49.9042 48.9561C49.5685 48.9561 49.2644 49.0796 48.9921 49.3267C48.7197 49.5674 48.5265 49.8809 48.4124 50.2674L48.4124 53.251L47.5763 53.251L47.5763 50.4764C47.5763 49.9506 47.4939 49.5674 47.3292 49.3267C47.1645 49.0796 46.9175 48.9561 46.5881 48.9561C46.2587 48.9561 45.9546 49.0764 45.6759 49.3172C45.4035 49.5515 45.2103 49.8651 45.0963 50.2579L45.0963 53.251L44.2601 53.251L44.2601 48.2909L45.0202 48.2909L45.0202 49.3552C45.2229 48.9878 45.4858 48.7059 45.8089 48.5095C46.132 48.3068 46.4962 48.2054 46.9016 48.2054C47.3134 48.2054 47.6428 48.3195 47.8898 48.5475C48.1369 48.7692 48.2889 49.0574 48.3459 49.4122C48.5676 49.0194 48.8369 48.7217 49.1536 48.519C49.4703 48.31 49.8314 48.2054 50.2368 48.2054C50.5219 48.2054 50.7594 48.2593 50.9495 48.367C51.1458 48.4683 51.301 48.614 51.4151 48.8041C51.5291 48.9878 51.6114 49.2063 51.6621 49.4597C51.7128 49.7131 51.7381 49.9886 51.7381 50.2864L51.7381 53.251ZM59.148 53.346C58.7743 53.346 58.4354 53.2795 58.1313 53.1465C57.8273 53.0071 57.5644 52.8202 57.3427 52.5858C57.1209 52.3451 56.9499 52.0696 56.8296 51.7592C56.7092 51.4488 56.649 51.1225 56.649 50.7805C56.649 50.4321 56.7092 50.1027 56.8296 49.7923C56.9499 49.4819 57.1209 49.2095 57.3427 48.9751C57.5644 48.7344 57.8273 48.5475 58.1313 48.4145C58.4417 48.2751 58.7806 48.2054 59.148 48.2054C59.5218 48.2054 59.8607 48.2751 60.1647 48.4145C60.4688 48.5475 60.7317 48.7344 60.9534 48.9751C61.1815 49.2095 61.3557 49.4819 61.476 49.7923C61.5964 50.1027 61.6566 50.4321 61.6566 50.7805C61.6566 51.1225 61.5964 51.4488 61.476 51.7592C61.3557 52.0696 61.1846 52.3451 60.9629 52.5858C60.7412 52.8202 60.4751 53.0071 60.1647 53.1465C59.8607 53.2795 59.5218 53.346 59.148 53.346ZM57.5042 50.79C57.5042 51.132 57.577 51.4424 57.7227 51.7212C57.8748 51.9999 58.0743 52.2216 58.3214 52.3863C58.5684 52.5447 58.844 52.6238 59.148 52.6238C59.4521 52.6238 59.7277 52.5415 59.9747 52.3768C60.2281 52.2121 60.4276 51.9904 60.5733 51.7117C60.7254 51.4266 60.8014 51.113 60.8014 50.771C60.8014 50.4289 60.7254 50.1185 60.5733 49.8398C60.4276 49.561 60.2281 49.3393 59.9747 49.1746C59.7277 49.0099 59.4521 48.9276 59.148 48.9276C58.844 48.9276 58.5684 49.0131 58.3214 49.1841C58.0743 49.3488 57.8748 49.5705 57.7227 49.8493C57.577 50.128 57.5042 50.4416 57.5042 50.79ZM59.4426 47.4643L58.8915 47.2742L59.4426 46.3145L60.2788 46.3145L59.4426 47.4643ZM67.8714 53.251L65.9235 48.2909L66.7976 48.2909L68.356 52.4528L69.9143 48.2909L70.7315 48.2909L68.7835 53.251L67.8714 53.251ZM77.5395 53.346C77.1657 53.346 76.8236 53.2795 76.5133 53.1465C76.2092 53.0071 75.9431 52.8202 75.7151 52.5858C75.4934 52.3451 75.3192 52.0696 75.1925 51.7592C75.0721 51.4488 75.0119 51.1194 75.0119 50.771C75.0119 50.3022 75.1196 49.8746 75.335 49.4882C75.5504 49.1018 75.8481 48.7914 76.2282 48.557C76.6146 48.3226 77.0549 48.2054 77.549 48.2054C78.0494 48.2054 78.4833 48.3258 78.8507 48.5665C79.2245 48.8009 79.5127 49.1113 79.7154 49.4977C79.9245 49.8778 80.029 50.2895 80.029 50.733C80.029 50.7963 80.0258 50.8596 80.0195 50.923C80.0195 50.98 80.0163 51.0243 80.01 51.056L75.8956 51.056C75.921 51.3791 76.0096 51.6673 76.1617 51.9207C76.32 52.1677 76.5228 52.3641 76.7698 52.5098C77.0169 52.6492 77.2829 52.7189 77.568 52.7189C77.872 52.7189 78.1571 52.6428 78.4231 52.4908C78.6955 52.3388 78.8824 52.1392 78.9838 51.8922L79.7059 52.0917C79.5982 52.3325 79.4367 52.5478 79.2213 52.7379C79.0123 52.9279 78.7621 53.0768 78.4707 53.1845C78.1856 53.2921 77.8752 53.346 77.5395 53.346ZM75.8671 50.4764L79.2498 50.4764C79.2245 50.1533 79.1326 49.8683 78.9743 49.6212C78.8159 49.3742 78.6132 49.181 78.3661 49.0416C78.1191 48.9022 77.8467 48.8326 77.549 48.8326C77.2576 48.8326 76.9883 48.9022 76.7413 49.0416C76.4942 49.181 76.2915 49.3742 76.1332 49.6212C75.9811 49.8683 75.8925 50.1533 75.8671 50.4764ZM84.9018 53.251L84.9018 48.2909L85.738 48.2909L85.738 53.251L84.9018 53.251ZM84.9018 47.3598L84.9018 46.3145L85.738 46.3145L85.738 47.3598L84.9018 47.3598ZM92.7359 53.346C92.3241 53.346 91.9377 53.2795 91.5766 53.1465C91.2155 53.0071 90.9051 52.8012 90.6454 52.5288L90.9685 51.9397C91.2536 52.2058 91.5386 52.3958 91.8237 52.5098C92.1087 52.6238 92.4001 52.6809 92.6979 52.6809C93.0399 52.6809 93.3186 52.6175 93.534 52.4908C93.7494 52.3578 93.8571 52.1646 93.8571 51.9112C93.8571 51.7275 93.8001 51.5913 93.6861 51.5026C93.5784 51.4139 93.4232 51.3411 93.2205 51.2841C93.0178 51.2207 92.777 51.151 92.4983 51.075C92.1562 50.9737 91.868 50.866 91.6336 50.752C91.3992 50.6379 91.2219 50.4954 91.1015 50.3244C90.9812 50.1533 90.921 49.938 90.921 49.6782C90.921 49.3615 91.0033 49.0954 91.168 48.8801C91.3327 48.6584 91.5576 48.4905 91.8427 48.3765C92.1341 48.2624 92.4635 48.2054 92.8309 48.2054C93.1983 48.2054 93.5309 48.2624 93.8286 48.3765C94.1263 48.4905 94.3829 48.6584 94.5982 48.8801L94.2182 49.4597C94.0218 49.257 93.8064 49.1081 93.572 49.0131C93.3377 48.9117 93.0748 48.8611 92.7834 48.8611C92.6123 48.8611 92.4445 48.8832 92.2798 48.9276C92.1151 48.9656 91.9789 49.0384 91.8712 49.1461C91.7635 49.2475 91.7096 49.3932 91.7096 49.5832C91.7096 49.7416 91.7508 49.8683 91.8332 49.9633C91.9219 50.052 92.0486 50.128 92.2133 50.1913C92.3843 50.2547 92.5902 50.3244 92.8309 50.4004C93.2046 50.5081 93.5277 50.6158 93.8001 50.7234C94.0788 50.8311 94.2942 50.9705 94.4462 51.1415C94.5982 51.3126 94.6743 51.5501 94.6743 51.8542C94.6743 52.3229 94.4969 52.6904 94.1422 52.9564C93.7874 53.2161 93.3186 53.346 92.7359 53.346Z" fill="white"/>
</svg>
