<svg width="89" height="54" viewBox="0 0 89 54" fill="none" xmlns="http://www.w3.org/2000/svg">
<path d="M14.173 16.4588L14.173 31.7588C14.173 36.6052 12.0034 38.5212 8.62213 38.5212C6.00168 38.5212 4.8746 36.8588 4.64919 36.4362L4.64919 47.9887L2.20366e-06 47.9887L1.47502e-08 9.94993L4.36741 9.94993L4.36742 11.8096C5.35361 10.4571 6.93151 9.63999 8.62212 9.69634C12.0033 9.69634 14.173 11.6124 14.173 16.4588ZM4.62101 17.4168L4.62101 30.8008C4.62101 33.3367 5.52267 34.2947 7.04422 34.2947C8.6503 34.2947 9.46743 33.3931 9.46743 30.8008L9.46743 17.4732C9.46743 14.9091 8.6503 13.951 7.04422 13.951C5.46631 13.9229 4.62101 14.9936 4.62101 17.4168Z" fill="#152340"/>
<path d="M20.6229 7.27192C19.0731 7.32828 17.777 6.11667 17.7206 4.56694C17.6643 3.01722 18.8759 1.72108 20.4256 1.66473C20.482 1.66473 20.5383 1.66473 20.5947 1.66473C22.1444 1.60838 23.4405 2.81998 23.4969 4.36971C23.5532 5.91944 22.3416 7.21557 20.7919 7.27192C20.7356 7.27192 20.6792 7.27192 20.6229 7.27192ZM22.9052 38.2665L18.256 38.2665L18.256 9.94873L22.9052 9.94873L22.9052 38.2665Z" fill="#152340"/>
<path d="M31.9516 38.2642L27.2461 38.2642L27.2461 0L31.9516 -2.53117e-07L31.9516 38.2642Z" fill="#152340"/>
<path d="M35.9824 31.1091L35.9824 17.077C35.9824 12.5687 38.5465 9.6665 43.1112 9.6665C47.5631 9.6665 50.1836 12.5969 50.1836 17.077L50.1836 31.1091C50.1836 35.7583 47.5631 38.6323 43.1112 38.6323C38.5465 38.6323 35.9824 35.7583 35.9824 31.1091ZM40.6316 16.4571L40.6316 31.7572C40.6316 33.6732 41.7869 34.3776 43.1112 34.3776C44.3791 34.3776 45.5344 33.6732 45.5344 31.7572L45.5344 16.4571C45.5344 14.6256 44.4355 13.8367 43.1112 13.8367C41.7305 13.8367 40.6316 14.6538 40.6316 16.4571Z" fill="#152340"/>
<path d="M53.0555 10.1978C55.5914 10.1978 56.2959 9.29609 56.2959 5.68945L59.5644 5.68945L59.5644 9.91598L63.0865 9.91598L63.0865 14.1143L59.5644 14.1143L59.5644 31.0768C59.5644 33.4437 59.818 34.5708 63.0865 34.2045L63.0865 38.4028C62.6356 38.4592 61.7622 38.5155 61.0577 38.5155C56.2677 38.5155 54.887 35.6415 54.887 31.3022L54.887 14.1425L53.0273 14.1425L53.0555 10.1978Z" fill="#152340"/>
<path d="M68.8084 7.27192C67.2587 7.32828 65.9625 6.11667 65.9062 4.56694C65.8498 3.01722 67.0614 1.72108 68.6112 1.66473C68.6675 1.66473 68.7239 1.66473 68.7802 1.66473C70.33 1.60838 71.6261 2.81998 71.6824 4.36971C71.7388 5.91944 70.5272 7.21557 68.9775 7.27192C68.9211 7.27192 68.8648 7.27192 68.8084 7.27192ZM71.0626 38.2665L66.4134 38.2665L66.4134 9.94873L71.0626 9.94873L71.0626 38.2665Z" fill="#152340"/>
<path d="M88.334 16.5659L83.7411 16.5659C83.7411 14.5372 82.5295 13.6919 81.3743 13.6919C80.1627 13.6355 79.1483 14.5935 79.0919 15.8051C79.0919 15.8333 79.0919 15.8897 79.0919 15.9178C79.0919 16.7631 79.4019 17.7493 80.3035 18.8482L86.108 25.8079C88.1367 28.2311 88.5312 30.2035 88.5312 32.3168C88.5312 35.8389 86.108 38.6284 81.4588 38.6284C76.9223 38.6284 74.1328 36.0079 74.1328 31.556L78.782 31.556C78.782 33.5847 79.9936 34.6273 81.4588 34.6273C82.7831 34.6273 83.882 33.5847 83.882 32.2322C83.882 32.2041 83.882 32.1759 83.882 32.1477C83.882 31.1333 83.7693 30.4289 82.4732 28.8228L76.7814 21.9195C74.6963 19.3836 74.4991 17.5803 74.4991 15.8615C74.4991 12.3675 76.9787 9.60621 81.177 9.60621C85.7135 9.57804 88.334 11.8604 88.334 16.5659Z" fill="#152340"/>
<path d="M35.1931 50.0654L35.1931 45.4708L35.9676 45.4708L35.9676 50.0654L35.1931 50.0654ZM35.1931 44.6082L35.1931 43.6399L35.9676 43.6399L35.9676 44.6082L35.1931 44.6082ZM47.8017 50.0654L47.0272 50.0654L47.0272 47.4952C47.0272 47.014 46.9479 46.659 46.7895 46.4302C46.6369 46.2013 46.4081 46.0869 46.1029 46.0869C45.7919 46.0869 45.5103 46.2013 45.2579 46.4302C45.0056 46.6532 44.8266 46.9436 44.721 47.3016L44.721 50.0654L43.9464 50.0654L43.9464 47.4952C43.9464 47.0082 43.8701 46.6532 43.7176 46.4302C43.565 46.2013 43.3362 46.0869 43.031 46.0869C42.7259 46.0869 42.4442 46.1984 42.186 46.4214C41.9337 46.6385 41.7547 46.929 41.6491 47.2928L41.6491 50.0654L40.8745 50.0654L40.8745 45.4708L41.5787 45.4708L41.5787 46.4566C41.7665 46.1162 42.01 45.8551 42.3092 45.6732C42.6085 45.4854 42.9459 45.3915 43.3215 45.3915C43.7029 45.3915 44.008 45.4972 44.2369 45.7084C44.4658 45.9138 44.6066 46.1808 44.6594 46.5094C44.8648 46.1456 45.1142 45.8698 45.4076 45.682C45.701 45.4884 46.0355 45.3915 46.411 45.3915C46.6751 45.3915 46.8951 45.4414 47.0712 45.5412C47.2531 45.6351 47.3968 45.77 47.5025 45.9461C47.6081 46.1162 47.6844 46.3187 47.7313 46.5534C47.7783 46.7881 47.8017 47.0434 47.8017 47.3192L47.8017 50.0654ZM54.6658 50.1534C54.3196 50.1534 54.0057 50.0918 53.724 49.9686C53.4423 49.8395 53.1988 49.6664 52.9934 49.4493C52.7881 49.2263 52.6296 48.971 52.5181 48.6835C52.4066 48.396 52.3509 48.0938 52.3509 47.7769C52.3509 47.4542 52.4066 47.149 52.5181 46.8615C52.6296 46.5739 52.7881 46.3216 52.9934 46.1045C53.1988 45.8815 53.4423 45.7084 53.724 45.5852C54.0115 45.4561 54.3255 45.3915 54.6658 45.3915C55.012 45.3915 55.326 45.4561 55.6076 45.5852C55.8893 45.7084 56.1328 45.8815 56.3382 46.1045C56.5495 46.3216 56.7108 46.5739 56.8223 46.8615C56.9338 47.149 56.9896 47.4542 56.9896 47.7769C56.9896 48.0938 56.9338 48.396 56.8223 48.6835C56.7108 48.971 56.5524 49.2263 56.347 49.4493C56.1416 49.6664 55.8952 49.8395 55.6076 49.9686C55.326 50.0918 55.012 50.1534 54.6658 50.1534ZM53.1431 47.7857C53.1431 48.1026 53.2106 48.3901 53.3455 48.6483C53.4863 48.9065 53.6712 49.1119 53.9 49.2644C54.1289 49.4111 54.3842 49.4845 54.6658 49.4845C54.9475 49.4845 55.2027 49.4082 55.4316 49.2556C55.6663 49.1031 55.8512 48.8977 55.9861 48.6395C56.127 48.3754 56.1974 48.085 56.1974 47.7681C56.1974 47.4512 56.127 47.1637 55.9861 46.9055C55.8512 46.6473 55.6663 46.4419 55.4316 46.2893C55.2027 46.1368 54.9475 46.0605 54.6658 46.0605C54.3842 46.0605 54.1289 46.1397 53.9 46.2981C53.6712 46.4507 53.4863 46.6561 53.3455 46.9143C53.2106 47.1725 53.1431 47.463 53.1431 47.7857ZM54.9387 44.705L54.4282 44.5289L54.9387 43.6399L55.7133 43.6399L54.9387 44.705ZM62.7466 50.0654L60.9422 45.4708L61.752 45.4708L63.1955 49.3261L64.639 45.4708L65.396 45.4708L63.5916 50.0654L62.7466 50.0654ZM71.7026 50.1534C71.3563 50.1534 71.0395 50.0918 70.7519 49.9686C70.4703 49.8395 70.2238 49.6664 70.0126 49.4493C69.8072 49.2263 69.6458 48.971 69.5284 48.6835C69.417 48.396 69.3612 48.0908 69.3612 47.7681C69.3612 47.3339 69.461 46.9378 69.6605 46.5798C69.86 46.2219 70.1358 45.9343 70.4879 45.7172C70.8458 45.5001 71.2536 45.3915 71.7114 45.3915C72.1749 45.3915 72.5769 45.503 72.9172 45.726C73.2635 45.9431 73.5304 46.2307 73.7182 46.5886C73.9119 46.9407 74.0087 47.3221 74.0087 47.7329C74.0087 47.7916 74.0058 47.8502 73.9999 47.9089C73.9999 47.9617 73.997 48.0028 73.9911 48.0322L70.1798 48.0322C70.2033 48.3314 70.2854 48.5984 70.4263 48.8331C70.573 49.062 70.7607 49.2439 70.9896 49.3789C71.2184 49.508 71.4649 49.5725 71.729 49.5725C72.0106 49.5725 72.2747 49.5021 72.5211 49.3613C72.7735 49.2204 72.9466 49.0356 73.0405 48.8067L73.7094 48.9916C73.6097 49.2146 73.46 49.4141 73.2605 49.5901C73.0669 49.7662 72.8351 49.9041 72.5652 50.0038C72.3011 50.1036 72.0136 50.1534 71.7026 50.1534ZM70.1534 47.4952L73.2869 47.4952C73.2635 47.196 73.1784 46.9319 73.0317 46.703C72.885 46.4742 72.6972 46.2952 72.4683 46.1661C72.2395 46.037 71.9872 45.9725 71.7114 45.9725C71.4414 45.9725 71.192 46.037 70.9632 46.1661C70.7343 46.2952 70.5465 46.4742 70.3998 46.703C70.259 46.9319 70.1769 47.196 70.1534 47.4952ZM78.5226 50.0654L78.5226 45.4708L79.2971 45.4708L79.2971 50.0654L78.5226 50.0654ZM78.5226 44.6082L78.5226 43.6399L79.2971 43.6399L79.2971 44.6082L78.5226 44.6082ZM85.7796 50.1534C85.3982 50.1534 85.0402 50.0918 84.7057 49.9686C84.3713 49.8395 84.0837 49.6488 83.8431 49.3965L84.1424 48.8507C84.4065 49.0972 84.6705 49.2732 84.9346 49.3789C85.1987 49.4845 85.4686 49.5373 85.7444 49.5373C86.0613 49.5373 86.3194 49.4786 86.519 49.3613C86.7185 49.238 86.8182 49.0591 86.8182 48.8243C86.8182 48.6542 86.7654 48.528 86.6598 48.4458C86.56 48.3637 86.4163 48.2962 86.2285 48.2434C86.0407 48.1847 85.8177 48.1202 85.5595 48.0498C85.2427 47.9559 84.9757 47.8561 84.7585 47.7505C84.5414 47.6449 84.3771 47.5128 84.2656 47.3544C84.1541 47.196 84.0984 46.9964 84.0984 46.7559C84.0984 46.4625 84.1747 46.216 84.3272 46.0165C84.4798 45.8111 84.6881 45.6556 84.9522 45.55C85.2221 45.4443 85.5273 45.3915 85.8676 45.3915C86.208 45.3915 86.516 45.4443 86.7918 45.55C87.0676 45.6556 87.3053 45.8111 87.5048 46.0165L87.1527 46.5534C86.9708 46.3656 86.7713 46.2277 86.5542 46.1397C86.337 46.0458 86.0935 45.9989 85.8236 45.9989C85.6652 45.9989 85.5097 46.0194 85.3571 46.0605C85.2045 46.0957 85.0784 46.1632 84.9786 46.2629C84.8788 46.3568 84.829 46.4918 84.829 46.6678C84.829 46.8145 84.8671 46.9319 84.9434 47.0199C85.0255 47.1021 85.1429 47.1725 85.2955 47.2312C85.4539 47.2898 85.6446 47.3544 85.8676 47.4248C86.2138 47.5246 86.5131 47.6243 86.7654 47.7241C87.0236 47.8238 87.2231 47.9529 87.364 48.1114C87.5048 48.2698 87.5752 48.4899 87.5752 48.7715C87.5752 49.2058 87.4109 49.5461 87.0823 49.7926C86.7537 50.0332 86.3194 50.1534 85.7796 50.1534Z" fill="#152340"/>
</svg>
